<svg width="240" height="24" viewBox="0 0 240 24" fill="none" xmlns="http://www.w3.org/2000/svg">
<path d="M1.83601 23.392C1.58668 23.392 1.37135 23.2787 1.19001 23.052C1.00868 22.8027 0.884015 22.576 0.816015 22.372C0.272015 20.196 1.47447e-05 17.5894 1.47447e-05 14.552C1.47447e-05 12.784 0.351348 11.0727 1.05401 9.41803C1.75668 7.76336 2.85601 6.35803 4.35202 5.20203C5.84802 4.04603 7.54802 3.46803 9.45202 3.46803C11.3787 3.46803 12.886 3.92136 13.974 4.82803C15.0847 5.71203 15.64 7.02669 15.64 8.77203C15.64 12.6254 13.1467 14.552 8.16001 14.552C10.948 16.2974 13.1013 18.0427 14.62 19.788C15.3 20.604 15.64 21.1254 15.64 21.352C15.64 22.032 15.3 22.372 14.62 22.372C14.348 22.372 14.1213 22.2814 13.94 22.1C13.7587 21.9187 13.532 21.6694 13.26 21.352C12.308 20.2414 11.288 19.2667 10.2 18.428C9.13468 17.5894 7.32135 16.388 4.76001 14.824C4.08001 14.3934 3.74001 13.9627 3.74001 13.532C3.74001 12.852 4.08001 12.512 4.76001 12.512H8.16001C10.0413 12.512 11.4127 12.24 12.274 11.696C13.158 11.152 13.6 10.2567 13.6 9.01003C13.6 7.74069 13.2713 6.84536 12.614 6.32403C11.9793 5.78003 11.0047 5.50803 9.69002 5.50803C8.37535 5.50803 7.23068 5.78003 6.25601 6.32403C5.25868 6.89069 4.46535 7.62736 3.87602 8.53403C2.65201 10.3927 2.04001 12.3987 2.04001 14.552C2.04001 17.3627 2.28935 19.7994 2.78801 21.862C2.83335 21.998 2.85601 22.168 2.85601 22.372C2.85601 23.052 2.51601 23.392 1.83601 23.392ZM21.0813 14.212C21.0813 13.9174 21.172 13.6794 21.3533 13.498C21.5347 13.294 21.784 13.192 22.1013 13.192C22.7813 13.192 23.1213 13.532 23.1213 14.212C23.1213 15.9574 23.5293 17.5894 24.3453 19.108C25.184 20.604 26.136 21.352 27.2013 21.352C27.6773 21.352 28.72 18.6547 30.3293 13.26C30.5333 12.58 30.964 12.24 31.6213 12.24C31.9613 12.24 32.2107 12.308 32.3693 12.444C32.528 12.58 32.6187 12.7614 32.6413 12.988C32.6867 13.2147 32.7547 13.6454 32.8453 14.28C32.936 14.9147 33.0493 15.5494 33.1853 16.184C33.2987 16.8187 33.446 17.4987 33.6273 18.224C34.0353 19.856 34.5 20.672 35.0213 20.672C35.452 20.672 35.8373 20.6154 36.1773 20.502C36.5173 20.3887 36.7213 20.332 36.7893 20.332C37.4693 20.332 37.8093 20.672 37.8093 21.352C37.8093 21.8507 37.5033 22.202 36.8913 22.406C36.2793 22.61 35.7127 22.712 35.1913 22.712C34.67 22.712 34.2393 22.6327 33.8993 22.474C33.5593 22.2927 33.276 22.0774 33.0493 21.828C32.868 21.6014 32.664 21.2614 32.4373 20.808C32.188 20.3094 31.95 19.7314 31.7233 19.074C31.5193 18.4167 31.406 18.0314 31.3833 17.918C31.3607 17.8047 31.338 17.6914 31.3153 17.578C31.3153 17.442 31.304 17.34 31.2813 17.272C31.236 17.3627 31.1907 17.4987 31.1453 17.68L31.0093 18.088C30.964 18.1787 30.9187 18.2807 30.8733 18.394C30.8507 18.4847 30.7373 18.836 30.5333 19.448C30.3293 20.0374 30.148 20.5134 29.9893 20.876C29.8307 21.1934 29.6153 21.5787 29.3433 22.032C28.7993 22.9387 28.0513 23.392 27.0993 23.392C26.17 23.392 25.1953 22.9387 24.1753 22.032C23.1553 21.1254 22.362 19.9127 21.7953 18.394C21.3647 19.0967 20.8433 19.7427 20.2313 20.332C19.2113 21.3294 18.4633 21.9187 17.9873 22.1C17.534 22.2814 17.1827 22.372 16.9333 22.372C16.2533 22.372 15.9133 22.032 15.9133 21.352C15.9133 20.9214 16.2533 20.57 16.9333 20.298C17.6133 20.0034 18.4747 19.278 19.5173 18.122C20.56 16.966 21.0813 15.6627 21.0813 14.212ZM64.604 15.572C66.1453 15.572 67.052 16.66 67.324 18.836C67.3467 18.9494 67.3693 19.1534 67.392 19.448C67.4373 19.72 67.4713 19.9354 67.494 20.094C67.5167 20.2527 67.5507 20.3774 67.596 20.468C67.596 20.5587 67.6187 20.6494 67.664 20.74C67.732 20.9214 67.8453 21.012 68.004 21.012C68.4347 21.012 68.99 20.8987 69.67 20.672C70.35 20.4454 70.724 20.332 70.792 20.332C71.472 20.332 71.812 20.672 71.812 21.352C71.812 21.8507 71.472 22.2134 70.792 22.44C69.568 22.848 68.616 23.052 67.936 23.052C66.4627 23.052 65.5787 21.7374 65.284 19.108C65.148 18.1107 64.9213 17.612 64.604 17.612C63.924 17.612 63.0627 18.4054 62.02 19.992C61.6347 20.5814 61.1247 21.1254 60.49 21.624C59.8553 22.1227 59.2093 22.372 58.552 22.372C57.8947 22.372 57.3733 22.1454 56.988 21.692C56.6027 21.2387 56.3533 20.808 56.24 20.4C56.104 19.9467 55.8887 18.9607 55.594 17.442C55.2993 15.9234 55.0953 15.1187 54.982 15.028C54.8913 14.9374 54.812 14.892 54.744 14.892C54.4267 14.892 54.1433 15.096 53.894 15.504C53.6673 15.8894 53.4067 16.4334 53.112 17.136C52.8173 17.8387 52.534 18.564 52.262 19.312C52.0127 20.0374 51.8087 20.5814 51.65 20.944C51.4913 21.284 51.276 21.6807 51.004 22.134C50.5053 22.9727 49.8253 23.392 48.964 23.392C48.3747 23.392 47.876 23.188 47.468 22.78C47.06 22.372 46.7427 21.8507 46.516 21.216C46.108 19.9467 45.8927 18.6547 45.87 17.34C45.87 16.0027 45.734 14.9827 45.462 14.28C45.2127 13.5547 44.9067 13.192 44.544 13.192C43.3653 13.192 42.4813 13.9174 41.892 15.368C41.62 16.0707 41.3253 17.068 41.008 18.36C40.5547 20.1054 39.478 21.3407 37.778 22.066C37.4153 22.27 37.0413 22.372 36.656 22.372C35.976 22.372 35.636 22.032 35.636 21.352C35.636 20.9214 35.976 20.57 36.656 20.298C36.928 20.1847 37.0753 20.128 37.098 20.128C37.1433 20.1054 37.234 20.06 37.37 19.992C37.506 19.924 37.5967 19.8787 37.642 19.856C37.6873 19.8107 37.7667 19.754 37.88 19.686C38.016 19.5954 38.1067 19.516 38.152 19.448C38.22 19.3574 38.2993 19.2554 38.39 19.142C38.5033 19.0287 38.5827 18.9154 38.628 18.802C38.8093 18.462 38.968 18.02 39.104 17.476C39.24 16.932 39.3647 16.4787 39.478 16.116C39.5913 15.7534 39.8067 15.198 40.124 14.45C40.4413 13.6794 40.77 13.1014 41.11 12.716C41.45 12.3307 41.9147 11.9794 42.504 11.662C43.116 11.322 43.8527 11.152 44.714 11.152C45.598 11.152 46.346 11.662 46.958 12.682C47.5927 13.6794 47.91 15.2094 47.91 17.272C47.91 17.9974 47.9893 18.8587 48.148 19.856C48.3293 20.8534 48.6013 21.352 48.964 21.352C49.1453 21.352 49.338 21.114 49.542 20.638C49.746 20.1394 49.916 19.72 50.052 19.38C50.188 19.0174 50.3467 18.5867 50.528 18.088C51.208 16.1614 51.8767 14.8127 52.534 14.042C53.1913 13.2487 53.928 12.852 54.744 12.852C55.696 12.852 56.376 13.2827 56.784 14.144C57.124 14.892 57.362 15.6287 57.498 16.354C57.9513 19.006 58.28 20.332 58.484 20.332C59.164 20.332 60.0253 19.5387 61.068 17.952C61.4533 17.3627 61.9633 16.8187 62.598 16.32C63.2327 15.8214 63.9013 15.572 64.604 15.572ZM78.578 6.52803C78.9407 6.52803 79.3147 6.69803 79.7 7.03803C80.0853 7.35536 80.278 7.69536 80.278 8.05803C80.278 8.39803 80.1193 8.65869 79.802 8.84003C79.5073 9.02136 79.1787 9.11203 78.816 9.11203C78.4533 9.11203 78.1473 8.95336 77.898 8.63603C77.6713 8.29603 77.558 7.93336 77.558 7.54803C77.558 6.86803 77.898 6.52803 78.578 6.52803ZM75.518 19.176C74.2487 20.536 72.9567 21.5107 71.642 22.1C71.234 22.2814 70.9053 22.372 70.656 22.372C69.976 22.372 69.636 22.032 69.636 21.352C69.636 20.9214 69.976 20.57 70.656 20.298C71.0187 20.162 71.4947 19.89 72.084 19.482C72.696 19.074 73.104 18.768 73.308 18.564C73.512 18.36 73.8633 17.986 74.362 17.442C74.8833 16.898 75.2913 16.49 75.586 16.218C75.8807 15.9234 76.2773 15.6287 76.776 15.334C77.2973 15.0394 77.7733 14.892 78.204 14.892C79.088 14.892 79.768 15.2094 80.244 15.844C80.72 16.4787 81.0033 17.1814 81.094 17.952C81.3433 19.992 81.74 21.012 82.284 21.012C82.7147 21.012 83.27 20.8987 83.95 20.672C84.63 20.4454 85.004 20.332 85.072 20.332C85.752 20.332 86.092 20.672 86.092 21.352C86.092 21.8507 85.752 22.2134 85.072 22.44C83.848 22.848 82.8507 23.052 82.08 23.052C81.332 23.052 80.72 22.7347 80.244 22.1C79.768 21.4654 79.4847 20.7627 79.394 19.992C79.1447 17.952 78.748 16.932 78.204 16.932C77.9093 16.932 77.5693 17.1247 77.184 17.51C76.8213 17.8727 76.5267 18.1674 76.3 18.394C76.0733 18.598 75.8127 18.8587 75.518 19.176ZM95.8813 23.052C94.68 23.052 93.7507 22.508 93.0933 21.42C92.4587 20.332 92.1413 19.0854 92.1413 17.68C92.1413 16.9547 92.4813 16.592 93.1613 16.592C93.8413 16.592 94.1813 17 94.1813 17.816C94.1813 18.632 94.34 19.3687 94.6573 20.026C94.9747 20.6834 95.36 21.012 95.8133 21.012C96.2893 21.012 96.8673 20.8987 97.5473 20.672C98.2273 20.4454 98.6013 20.332 98.6693 20.332C99.3493 20.332 99.6893 20.672 99.6893 21.352C99.6893 21.8507 99.3493 22.2134 98.6693 22.44C97.4453 22.848 96.516 23.052 95.8813 23.052ZM89.0813 1.02003L89.0473 1.59803C88.7753 4.31803 88.594 6.33536 88.5033 7.65003C88.4353 8.96469 88.4013 10.5514 88.4013 12.41C88.4013 14.246 88.458 15.4474 88.5713 16.014C89.1153 14.8127 90.0447 13.702 91.3593 12.682C92.674 11.662 94.2947 11.152 96.2213 11.152C96.9013 11.152 97.2413 11.492 97.2413 12.172C97.2413 12.852 96.9013 13.192 96.2213 13.192C95.292 13.192 94.4307 13.362 93.6373 13.702C92.8667 14.042 92.2547 14.4614 91.8013 14.96C90.94 15.912 90.396 16.762 90.1693 17.51C90.124 17.646 90.0447 17.9407 89.9313 18.394C89.8407 18.8247 89.7727 19.108 89.7273 19.244C89.7047 19.4027 89.6253 19.6067 89.4893 19.856C89.2627 20.2867 88.9 20.502 88.4013 20.502C87.9253 20.502 87.4607 19.754 87.0073 18.258C86.5767 16.7394 86.3613 15.3907 86.3613 14.212C86.3613 13.0334 86.3613 11.9794 86.3613 11.05C86.384 10.098 86.3953 9.35003 86.3953 8.80603C86.418 8.23936 86.4633 7.54803 86.5313 6.73203C86.5993 5.91603 86.6333 5.38336 86.6333 5.13403C86.6787 4.06869 86.8147 2.68603 87.0413 0.986027C87.1093 0.328695 87.4493 2.80142e-05 88.0613 2.80142e-05C88.7413 2.80142e-05 89.0813 0.340028 89.0813 1.02003ZM103.715 20.808C104.077 20.808 104.451 20.9667 104.837 21.284C105.222 21.6014 105.415 21.9414 105.415 22.304C105.415 22.6667 105.256 22.9387 104.939 23.12C104.644 23.3014 104.315 23.392 103.953 23.392C103.59 23.392 103.284 23.2334 103.035 22.916C102.808 22.576 102.695 22.2134 102.695 21.828C102.695 21.148 103.035 20.808 103.715 20.808ZM126.167 20.604C126.167 20.604 126.529 20.5134 127.255 20.332C127.935 20.332 128.275 20.672 128.275 21.352C128.275 21.8507 127.935 22.2134 127.255 22.44C126.847 22.576 126.439 22.644 126.031 22.644C125.645 22.644 125.271 22.5534 124.909 22.372C124.546 22.1907 124.263 21.9187 124.059 21.556C123.719 20.9667 123.469 20.332 123.311 19.652L123.175 19.074C122.789 19.7314 121.849 20.502 120.353 21.386C118.879 22.27 117.304 22.712 115.627 22.712C114.72 22.712 113.927 22.372 113.247 21.692C112.567 21.012 112.227 20.2187 112.227 19.312C112.227 17.1134 113.133 15.2094 114.947 13.6C116.76 11.968 118.596 11.152 120.455 11.152C121.475 11.152 122.347 11.3447 123.073 11.73C123.821 12.0927 124.195 12.4667 124.195 12.852C124.195 13.532 123.855 13.872 123.175 13.872C123.039 13.872 122.71 13.7587 122.189 13.532C121.667 13.3054 121.089 13.192 120.455 13.192C119.231 13.192 117.893 13.7927 116.443 14.994C114.992 16.1727 114.267 17.612 114.267 19.312C114.267 19.652 114.403 19.9694 114.675 20.264C114.969 20.536 115.287 20.672 115.627 20.672C116.964 20.672 118.211 20.3207 119.367 19.618C120.523 18.8927 121.259 18.3034 121.577 17.85C121.894 17.374 122.155 16.9434 122.359 16.558C122.563 16.1727 122.71 15.9234 122.801 15.81C122.914 15.674 123.141 15.606 123.481 15.606C123.821 15.606 124.081 15.7307 124.263 15.98C124.444 16.2294 124.614 16.626 124.773 17.17C124.931 17.6914 125.09 18.2807 125.249 18.938C125.407 19.5954 125.543 20.0374 125.657 20.264C125.793 20.4907 125.963 20.604 126.167 20.604ZM135.057 6.52803C135.419 6.52803 135.793 6.69803 136.179 7.03803C136.564 7.35536 136.757 7.69536 136.757 8.05803C136.757 8.39803 136.598 8.65869 136.281 8.84003C135.986 9.02136 135.657 9.11203 135.295 9.11203C134.932 9.11203 134.626 8.95336 134.377 8.63603C134.15 8.29603 134.037 7.93336 134.037 7.54803C134.037 6.86803 134.377 6.52803 135.057 6.52803ZM131.997 19.176C130.727 20.536 129.435 21.5107 128.121 22.1C127.713 22.2814 127.384 22.372 127.135 22.372C126.455 22.372 126.115 22.032 126.115 21.352C126.115 20.9214 126.455 20.57 127.135 20.298C127.497 20.162 127.973 19.89 128.563 19.482C129.175 19.074 129.583 18.768 129.787 18.564C129.991 18.36 130.342 17.986 130.841 17.442C131.362 16.898 131.77 16.49 132.065 16.218C132.359 15.9234 132.756 15.6287 133.255 15.334C133.776 15.0394 134.252 14.892 134.683 14.892C135.567 14.892 136.247 15.2094 136.723 15.844C137.199 16.4787 137.482 17.1814 137.573 17.952C137.822 19.992 138.219 21.012 138.763 21.012C139.193 21.012 139.749 20.8987 140.429 20.672C141.109 20.4454 141.483 20.332 141.551 20.332C142.231 20.332 142.571 20.672 142.571 21.352C142.571 21.8507 142.231 22.2134 141.551 22.44C140.327 22.848 139.329 23.052 138.559 23.052C137.811 23.052 137.199 22.7347 136.723 22.1C136.247 21.4654 135.963 20.7627 135.873 19.992C135.623 17.952 135.227 16.932 134.683 16.932C134.388 16.932 134.048 17.1247 133.663 17.51C133.3 17.8727 133.005 18.1674 132.779 18.394C132.552 18.598 132.291 18.8587 131.997 19.176ZM173.116 7.75203C171.121 7.75203 169.489 8.47736 168.22 9.92803C166.95 11.3787 166.316 13.1467 166.316 15.232V22.372C166.316 23.052 165.976 23.392 165.296 23.392C164.616 23.392 164.276 23.052 164.276 22.372V15.232C164.276 13.2147 164.786 11.4014 165.806 9.79203C166.826 8.1827 168.129 7.04936 169.716 6.39203C166.316 5.80269 163.142 5.50803 160.196 5.50803C159.516 5.50803 159.176 5.16803 159.176 4.48803C159.176 3.80803 159.516 3.46803 160.196 3.46803C163.709 3.46803 168.016 3.98936 173.116 5.03203C173.388 5.07736 173.626 5.23603 173.83 5.50803C174.034 5.75736 174.136 6.05203 174.136 6.39203C174.136 6.73203 174.022 7.04936 173.796 7.34403C173.569 7.61603 173.342 7.75203 173.116 7.75203ZM176.396 21.42C176.373 21.42 176.203 21.5107 175.886 21.692C175.07 22.1454 174.469 22.372 174.084 22.372C173.404 22.372 173.064 22.032 173.064 21.352C173.064 20.9214 173.404 20.57 174.084 20.298C174.197 20.2527 174.469 20.1167 174.9 19.89C175.33 19.6634 175.58 19.5274 175.648 19.482C175.557 19.278 175.512 18.972 175.512 18.564C175.512 16.524 176.226 14.7787 177.654 13.328C179.082 11.8774 180.385 11.152 181.564 11.152C182.742 11.152 183.672 11.4354 184.352 12.002C185.032 12.546 185.372 13.2147 185.372 14.008C185.372 14.7787 185.19 15.4474 184.828 16.014C184.465 16.5807 183.898 17.136 183.128 17.68C182.062 18.4507 180.51 19.346 178.47 20.366C179.376 21.0234 180.634 21.352 182.244 21.352C183.853 21.352 185.44 21.0914 187.004 20.57C187.48 20.4114 187.752 20.332 187.82 20.332C188.5 20.332 188.84 20.672 188.84 21.352C188.84 21.8507 188.5 22.2134 187.82 22.44C185.916 23.0747 184.08 23.392 182.312 23.392C179.796 23.392 177.824 22.7347 176.396 21.42ZM177.552 18.564C181.405 16.6374 183.332 15.1867 183.332 14.212C183.332 13.532 182.765 13.192 181.632 13.192C180.952 13.192 180.102 13.736 179.082 14.824C178.062 15.8894 177.552 17.136 177.552 18.564ZM203.065 20.604C203.065 20.604 203.428 20.5134 204.153 20.332C204.833 20.332 205.173 20.672 205.173 21.352C205.173 21.8507 204.833 22.2134 204.153 22.44C203.745 22.576 203.337 22.644 202.929 22.644C202.544 22.644 202.17 22.5534 201.807 22.372C201.444 22.1907 201.161 21.9187 200.957 21.556C200.617 20.9667 200.368 20.332 200.209 19.652L200.073 19.074C199.688 19.7314 198.747 20.502 197.251 21.386C195.778 22.27 194.202 22.712 192.525 22.712C191.618 22.712 190.825 22.372 190.145 21.692C189.465 21.012 189.125 20.2187 189.125 19.312C189.125 17.1134 190.032 15.2094 191.845 13.6C193.658 11.968 195.494 11.152 197.353 11.152C198.373 11.152 199.246 11.3447 199.971 11.73C200.719 12.0927 201.093 12.4667 201.093 12.852C201.093 13.532 200.753 13.872 200.073 13.872C199.937 13.872 199.608 13.7587 199.087 13.532C198.566 13.3054 197.988 13.192 197.353 13.192C196.129 13.192 194.792 13.7927 193.341 14.994C191.89 16.1727 191.165 17.612 191.165 19.312C191.165 19.652 191.301 19.9694 191.573 20.264C191.868 20.536 192.185 20.672 192.525 20.672C193.862 20.672 195.109 20.3207 196.265 19.618C197.421 18.8927 198.158 18.3034 198.475 17.85C198.792 17.374 199.053 16.9434 199.257 16.558C199.461 16.1727 199.608 15.9234 199.699 15.81C199.812 15.674 200.039 15.606 200.379 15.606C200.719 15.606 200.98 15.7307 201.161 15.98C201.342 16.2294 201.512 16.626 201.671 17.17C201.83 17.6914 201.988 18.2807 202.147 18.938C202.306 19.5954 202.442 20.0374 202.555 20.264C202.691 20.4907 202.861 20.604 203.065 20.604ZM231.981 15.572C233.522 15.572 234.429 16.66 234.701 18.836C234.724 18.9494 234.746 19.1534 234.769 19.448C234.814 19.72 234.848 19.9354 234.871 20.094C234.894 20.2527 234.928 20.3774 234.973 20.468C234.973 20.5587 234.996 20.6494 235.041 20.74C235.109 20.9214 235.222 21.012 235.381 21.012C235.812 21.012 236.367 20.8987 237.047 20.672C237.727 20.4454 238.101 20.332 238.169 20.332C238.849 20.332 239.189 20.672 239.189 21.352C239.189 21.8507 238.849 22.2134 238.169 22.44C236.945 22.848 235.993 23.052 235.313 23.052C233.84 23.052 232.956 21.7374 232.661 19.108C232.525 18.1107 232.298 17.612 231.981 17.612C231.301 17.612 230.44 18.4054 229.397 19.992C229.012 20.5814 228.502 21.1254 227.867 21.624C227.232 22.1227 226.586 22.372 225.929 22.372C225.272 22.372 224.75 22.1454 224.365 21.692C223.98 21.2387 223.73 20.808 223.617 20.4C223.481 19.9467 223.266 18.9607 222.971 17.442C222.676 15.9234 222.472 15.1187 222.359 15.028C222.268 14.9374 222.189 14.892 222.121 14.892C221.804 14.892 221.52 15.096 221.271 15.504C221.044 15.8894 220.784 16.4334 220.489 17.136C220.194 17.8387 219.911 18.564 219.639 19.312C219.39 20.0374 219.186 20.5814 219.027 20.944C218.868 21.284 218.653 21.6807 218.381 22.134C217.882 22.9727 217.202 23.392 216.341 23.392C215.752 23.392 215.253 23.188 214.845 22.78C214.437 22.372 214.12 21.8507 213.893 21.216C213.485 19.9467 213.27 18.6547 213.247 17.34C213.247 16.0027 213.111 14.9827 212.839 14.28C212.59 13.5547 212.284 13.192 211.921 13.192C210.742 13.192 209.858 13.9174 209.269 15.368C208.997 16.0707 208.702 17.068 208.385 18.36C207.932 20.1054 206.855 21.3407 205.155 22.066C204.792 22.27 204.418 22.372 204.033 22.372C203.353 22.372 203.013 22.032 203.013 21.352C203.013 20.9214 203.353 20.57 204.033 20.298C204.305 20.1847 204.452 20.128 204.475 20.128C204.52 20.1054 204.611 20.06 204.747 19.992C204.883 19.924 204.974 19.8787 205.019 19.856C205.064 19.8107 205.144 19.754 205.257 19.686C205.393 19.5954 205.484 19.516 205.529 19.448C205.597 19.3574 205.676 19.2554 205.767 19.142C205.88 19.0287 205.96 18.9154 206.005 18.802C206.186 18.462 206.345 18.02 206.481 17.476C206.617 16.932 206.742 16.4787 206.855 16.116C206.968 15.7534 207.184 15.198 207.501 14.45C207.818 13.6794 208.147 13.1014 208.487 12.716C208.827 12.3307 209.292 11.9794 209.881 11.662C210.493 11.322 211.23 11.152 212.091 11.152C212.975 11.152 213.723 11.662 214.335 12.682C214.97 13.6794 215.287 15.2094 215.287 17.272C215.287 17.9974 215.366 18.8587 215.525 19.856C215.706 20.8534 215.978 21.352 216.341 21.352C216.522 21.352 216.715 21.114 216.919 20.638C217.123 20.1394 217.293 19.72 217.429 19.38C217.565 19.0174 217.724 18.5867 217.905 18.088C218.585 16.1614 219.254 14.8127 219.911 14.042C220.568 13.2487 221.305 12.852 222.121 12.852C223.073 12.852 223.753 13.2827 224.161 14.144C224.501 14.892 224.739 15.6287 224.875 16.354C225.328 19.006 225.657 20.332 225.861 20.332C226.541 20.332 227.402 19.5387 228.445 17.952C228.83 17.3627 229.34 16.8187 229.975 16.32C230.61 15.8214 231.278 15.572 231.981 15.572Z" fill="black"/>
</svg>
