<svg width="24" height="24" viewBox="0 0 24 24" fill="none" xmlns="http://www.w3.org/2000/svg">
<path d="M17.994 20.7552C17.1981 20.7552 16.0801 20.4674 14.4059 19.532C12.37 18.3903 10.7953 17.3363 8.77044 15.3167C6.81816 13.3657 5.86812 12.1025 4.53847 9.68295C3.03634 6.95107 3.2924 5.51907 3.57864 4.90705C3.91951 4.17556 4.42267 3.73805 5.07302 3.3038C5.44242 3.06178 5.83333 2.85431 6.2408 2.68403C6.28157 2.6665 6.31949 2.64978 6.35334 2.63469C6.55517 2.54377 6.86098 2.40636 7.24833 2.55315C7.50684 2.65019 7.73763 2.84876 8.09889 3.20554C8.83976 3.93621 9.85219 5.56352 10.2257 6.3627C10.4764 6.90133 10.6424 7.25688 10.6428 7.65565C10.6428 8.12252 10.4079 8.48256 10.1229 8.87114C10.0695 8.94412 10.0165 9.01385 9.96513 9.08153C9.65484 9.48928 9.58675 9.60711 9.6316 9.81751C9.72252 10.2403 10.4006 11.499 11.515 12.611C12.6293 13.7229 13.8517 14.3581 14.2762 14.4487C14.4956 14.4956 14.6159 14.4246 15.0366 14.1033C15.097 14.0572 15.159 14.0095 15.2238 13.9618C15.6585 13.6385 16.0018 13.4097 16.4576 13.4097H16.4601C16.8568 13.4097 17.1965 13.5818 17.7592 13.8656C18.4931 14.2358 20.1693 15.2352 20.9045 15.9769C21.2621 16.3373 21.4615 16.5673 21.5589 16.8254C21.7057 17.214 21.5675 17.5186 21.4774 17.7224C21.4623 17.7563 21.4456 17.7934 21.428 17.8346C21.2564 18.2413 21.0477 18.6314 20.8046 18.9999C20.3712 19.6482 19.932 20.1501 19.1989 20.4914C18.8224 20.6695 18.4104 20.7597 17.994 20.7552Z" fill="#BEAB71"/>
</svg>
