<svg width="25" height="25" viewBox="0 0 25 25" fill="none" xmlns="http://www.w3.org/2000/svg">
<path d="M16.69 7.07901L15.4226 5.07644C15.1555 4.76506 14.7893 4.5708 14.3789 4.5708H9.99858C9.58816 4.5708 9.22202 4.76506 8.95492 5.07644L7.68748 7.07901C7.42038 7.39087 7.07614 7.61798 6.66572 7.61798H3.80899C3.40491 7.61798 3.01738 7.7785 2.73165 8.06423C2.44592 8.34996 2.2854 8.73749 2.2854 9.14157V18.2831C2.2854 18.6872 2.44592 19.0747 2.73165 19.3605C3.01738 19.6462 3.40491 19.8067 3.80899 19.8067H20.5685C20.9726 19.8067 21.3601 19.6462 21.6458 19.3605C21.9316 19.0747 22.0921 18.6872 22.0921 18.2831V9.14157C22.0921 8.73749 21.9316 8.34996 21.6458 8.06423C21.3601 7.7785 20.9726 7.61798 20.5685 7.61798H17.7594C17.3475 7.61798 16.9571 7.39087 16.69 7.07901Z" stroke="#BEAB71" stroke-width="1.52359" stroke-linecap="round" stroke-linejoin="round"/>
<path d="M12.1887 16.7595C14.2924 16.7595 15.9977 15.0542 15.9977 12.9505C15.9977 10.8469 14.2924 9.14154 12.1887 9.14154C10.0851 9.14154 8.37976 10.8469 8.37976 12.9505C8.37976 15.0542 10.0851 16.7595 12.1887 16.7595Z" stroke="#BEAB71" stroke-width="1.52359" stroke-miterlimit="10"/>
<path d="M5.90392 7.52275V6.47528H4.76123V7.52275" stroke="#BEAB71" stroke-width="1.52359" stroke-linecap="round" stroke-linejoin="round"/>
</svg>
