<svg width="24" height="24" viewBox="0 0 24 24" fill="none" xmlns="http://www.w3.org/2000/svg">
<path d="M19.2536 3.70264H4.44316C3.21622 3.70264 2.22159 4.69727 2.22159 5.92421V17.7726C2.22159 18.9995 3.21622 19.9942 4.44316 19.9942H19.2536C20.4806 19.9942 21.4752 18.9995 21.4752 17.7726V5.92421C21.4752 4.69727 20.4806 3.70264 19.2536 3.70264Z" stroke="#BEAB71" stroke-width="1.48105" stroke-linejoin="round"/>
<path d="M15.551 9.62683C16.369 9.62683 17.0321 8.96374 17.0321 8.14578C17.0321 7.32782 16.369 6.66473 15.551 6.66473C14.7331 6.66473 14.07 7.32782 14.07 8.14578C14.07 8.96374 14.7331 9.62683 15.551 9.62683Z" stroke="#BEAB71" stroke-width="1.48105" stroke-miterlimit="10"/>
<path d="M14.07 15.5413L9.87398 11.3532C9.60698 11.0862 9.2481 10.9313 8.87071 10.9201C8.49332 10.909 8.1259 11.0423 7.84356 11.293L2.22159 16.2915M10.3674 19.9942L16.0759 14.2856C16.3369 14.0241 16.6864 13.8695 17.0555 13.8524C17.4247 13.8353 17.787 13.9568 18.0711 14.1931L21.4752 17.0321" stroke="#BEAB71" stroke-width="1.48105" stroke-linecap="round" stroke-linejoin="round"/>
</svg>
