<svg width="57" height="22" viewBox="0 0 57 22" fill="none" xmlns="http://www.w3.org/2000/svg">
<path d="M17.1041 17.0367C19.9211 17.0367 21.5944 14.8337 21.5944 11.1033C21.5944 9.69861 21.3257 8.51654 20.8115 7.60312C20.0669 6.1831 18.7851 5.41552 17.1655 5.41552C14.7553 5.41552 13.0513 7.03511 13.0513 9.30714C13.0513 11.441 14.5864 12.9915 16.6973 12.9915C17.9945 12.9915 19.046 12.3851 19.568 11.3335H19.591C19.591 11.3335 19.6217 11.3335 19.6294 11.3335C19.6448 11.3335 19.6985 11.3335 19.6985 11.3335C19.6985 13.8666 18.739 15.3787 17.1194 15.3787C16.1676 15.3787 15.4307 14.8567 15.1774 14.0201H13.2048C13.5348 15.8392 15.0777 17.0367 17.1041 17.0367ZM17.1732 11.418C15.899 11.418 14.9932 10.5122 14.9932 9.24573C14.9932 8.00993 15.945 7.06581 17.1808 7.06581C18.4166 7.06581 19.3684 8.02529 19.3684 9.27644C19.3684 10.5122 18.4397 11.418 17.1732 11.418Z" fill="#0B0B0B"/>
<path d="M24.8339 16.9292C25.5631 16.9292 26.062 16.4072 26.062 15.7164C26.062 15.0179 25.5631 14.5036 24.8339 14.5036C24.1124 14.5036 23.6058 15.0179 23.6058 15.7164C23.6058 16.4072 24.1124 16.9292 24.8339 16.9292ZM24.8339 11.1724C25.5631 11.1724 26.062 10.6581 26.062 9.96726C26.062 9.26876 25.5631 8.75448 24.8339 8.75448C24.1124 8.75448 23.6058 9.26876 23.6058 9.96726C23.6058 10.6581 24.1124 11.1724 24.8339 11.1724Z" fill="#0B0B0B"/>
<path d="M33.2468 16.768H35.1428V14.7032H36.6395V13.0299H35.1428V5.69185H32.3488C30.3915 8.63935 28.8333 11.1033 27.8354 12.9378V14.7032H33.2468V16.768ZM29.6699 12.9608C30.9595 10.6888 32.1108 8.86962 33.1701 7.30376H33.2776V13.0759H29.6699V12.9608Z" fill="#0B0B0B"/>
<path d="M40.8615 16.768H42.8419V5.69185H40.8692L37.9754 7.71825V9.62185L40.731 7.68755H40.8615V16.768Z" fill="#0B0B0B"/>
</svg>
