<svg width="24" height="24" viewBox="0 0 24 24" fill="none" xmlns="http://www.w3.org/2000/svg">
<path d="M10.3778 11.6226C10.3778 12.3103 10.9352 12.8679 11.623 12.8679C12.3107 12.868 12.8682 12.3105 12.8682 11.6228C12.8683 10.9351 12.3108 10.3775 11.6231 10.3775C10.9354 10.3774 10.3779 10.9349 10.3778 11.6226Z" stroke="#BEAB71" stroke-width="2.44812" stroke-linecap="round"/>
<path d="M10.3778 4.15132C10.3778 4.83904 10.9352 5.39657 11.623 5.39661C12.3107 5.39665 12.8682 4.83917 12.8682 4.15146C12.8683 3.46375 12.3108 2.90621 11.6231 2.90617C10.9354 2.90613 10.3779 3.46361 10.3778 4.15132Z" stroke="#BEAB71" stroke-width="2.44812" stroke-linecap="round"/>
<path d="M10.377 19.0939C10.377 19.7816 10.9344 20.3392 11.6221 20.3392C12.3099 20.3393 12.8674 19.7818 12.8674 19.0941C12.8675 18.4064 12.31 17.8488 11.6223 17.8488C10.9346 17.8487 10.377 18.4062 10.377 19.0939Z" stroke="#BEAB71" stroke-width="2.44812" stroke-linecap="round"/>
</svg>
