<svg width="70" height="12" viewBox="0 0 70 12" fill="none" xmlns="http://www.w3.org/2000/svg">
<path opacity="0.35" d="M47.1602 0.527451H64.627C65.8809 0.527661 66.8976 1.54403 66.8976 2.79796V9.08604C66.8974 10.3398 65.8808 11.3563 64.627 11.3566H47.1602C45.9063 11.3566 44.8899 10.3399 44.8897 9.08604V2.79796C44.8897 1.5439 45.9062 0.527451 47.1602 0.527451Z" fill="#0B0B0B" stroke="#0B0B0B" stroke-width="1.048"/>
<path opacity="0.4" d="M68.4693 3.8457V8.0377C69.3127 7.68267 69.8611 6.85675 69.8611 5.9417C69.8611 5.02666 69.3127 4.20074 68.4693 3.8457Z" fill="#0B0B0B"/>
<path d="M46.4613 3.49637C46.4613 2.72464 47.0869 2.09904 47.8587 2.09904H63.928C64.6997 2.09904 65.3253 2.72464 65.3253 3.49637V8.38704C65.3253 9.15876 64.6997 9.78437 63.928 9.78437H47.8587C47.0869 9.78437 46.4613 9.15876 46.4613 8.38704V3.49637Z" fill="#0B0B0B"/>
<path d="M28.7719 8.80373C30.1086 7.6731 32.0669 7.67307 33.4037 8.80373C33.4708 8.86451 33.5092 8.95051 33.5111 9.04103C33.513 9.13149 33.4779 9.21876 33.4135 9.28224L31.3197 11.3955C31.2584 11.4574 31.1744 11.4922 31.0873 11.4922C31.0001 11.4921 30.9162 11.4575 30.8549 11.3955L28.7621 9.28224C28.6974 9.21868 28.6615 9.13169 28.6635 9.04103C28.6654 8.95038 28.7046 8.8645 28.7719 8.80373ZM25.9789 5.98537C28.8589 3.30672 33.3186 3.30672 36.1986 5.98537C36.2636 6.04819 36.3012 6.1352 36.3021 6.2256C36.3029 6.31586 36.2671 6.40278 36.2035 6.46681L34.9935 7.68947C34.8688 7.81417 34.6673 7.81683 34.5394 7.69533C33.5937 6.83896 32.3632 6.3642 31.0873 6.36427C29.8123 6.36486 28.5831 6.83958 27.6381 7.69533C27.5102 7.81683 27.3087 7.81416 27.184 7.68947L25.974 6.46681C25.9102 6.40286 25.8746 6.31591 25.8754 6.2256C25.8762 6.13517 25.9138 6.04819 25.9789 5.98537ZM23.1849 3.17482C27.6022 -1.0584 34.5712 -1.05815 38.9886 3.17482C39.0526 3.23772 39.0897 3.32439 39.0902 3.41408C39.0906 3.50362 39.0547 3.5898 38.9916 3.65334L37.7806 4.87599C37.6558 5.00146 37.4533 5.00246 37.3265 4.87892C35.6435 3.27888 33.4095 2.38684 31.0873 2.38674C28.765 2.38679 26.5312 3.2789 24.848 4.87892C24.7214 5.00263 24.5187 5.0016 24.3939 4.87599L23.182 3.65334C23.119 3.58977 23.0839 3.50359 23.0844 3.41408C23.0849 3.32439 23.1209 3.23767 23.1849 3.17482Z" fill="#0B0B0B"/>
<path d="M2.0957 7.339C2.67447 7.339 3.1435 7.8081 3.14355 8.38686V10.4826C3.14355 11.0614 2.6745 11.5314 2.0957 11.5314H1.04785C0.469125 11.5313 0 11.0613 0 10.4826V8.38686C5.03088e-05 7.80815 0.469156 7.33908 1.04785 7.339H2.0957ZM6.98633 5.2433C7.56512 5.2433 8.03418 5.71236 8.03418 6.29115V10.4826C8.03418 11.0614 7.56512 11.5314 6.98633 11.5314H5.93848C5.35977 11.5313 4.89062 11.0613 4.89062 10.4826V6.29115C4.89062 5.71242 5.35977 5.2434 5.93848 5.2433H6.98633ZM11.877 2.79799C12.4557 2.79799 12.9258 3.26705 12.9258 3.84584V10.4826C12.9258 11.0614 12.4557 11.5314 11.877 11.5314H10.8291C10.2504 11.5313 9.78125 11.0613 9.78125 10.4826V3.84584C9.78125 3.26712 10.2504 2.79811 10.8291 2.79799H11.877ZM16.7676 0.352676C17.3464 0.352676 17.8164 0.821734 17.8164 1.40053V10.4826C17.8164 11.0614 17.3464 11.5314 16.7676 11.5314H15.7197C15.1411 11.5312 14.6719 11.0613 14.6719 10.4826V1.40053C14.6719 0.821825 15.1411 0.352824 15.7197 0.352676H16.7676Z" fill="#0B0B0B"/>
</svg>
